<svg xmlns="http://www.w3.org/2000/svg" viewBox="0 0 512 512">
  <defs>
    <linearGradient id="bg" x1="0%" y1="0%" x2="100%" y2="100%">
      <stop offset="0%" style="stop-color:#0f0f0f"/>
      <stop offset="100%" style="stop-color:#1a1a1a"/>
    </linearGradient>
    <linearGradient id="blue" x1="0%" y1="0%" x2="100%" y2="100%">
      <stop offset="0%" style="stop-color:#60a5fa"/>
      <stop offset="100%" style="stop-color:#2563eb"/>
    </linearGradient>
  </defs>
  <!-- Background -->
  <rect width="512" height="512" rx="96" fill="url(#bg)"/>
  <!-- S - left side, clean geometric stroke -->
  <path d="M100 190c0-33 27-60 60-60h36c33 0 60 27 60 60c0 33-27 60-60 60h-36c-33 0-60 27-60 60c0 33 27 60 60 60h36c33 0 60-27 60-60"
        fill="none" stroke="url(#blue)" stroke-width="34" stroke-linecap="round" stroke-linejoin="round"/>
  <!-- C - right side, clear open arc -->
  <path d="M412 190c0-33-27-60-60-60h-28c-33 0-60 27-60 60v132c0 33 27 60 60 60h28c33 0 60-27 60-60"
        fill="none" stroke="#fafaf9" stroke-width="34" stroke-linecap="round"/>
</svg>
